<?xml version="1.0" encoding="UTF-8" standalone="no"?>
<!DOCTYPE svg PUBLIC "-//W3C//DTD SVG 1.1//EN" "http://www.w3.org/Graphics/SVG/1.1/DTD/svg11.dtd">
<svg width="100%" height="100%" viewBox="0 0 676 477" version="1.1" xmlns="http://www.w3.org/2000/svg" xmlns:xlink="http://www.w3.org/1999/xlink" xml:space="preserve" xmlns:serif="http://www.serif.com/" style="fill-rule:evenodd;clip-rule:evenodd;stroke-linejoin:round;stroke-miterlimit:2;">
    <g transform="matrix(1,0,0,1,-333.291,-1363.69)">
        <g transform="matrix(1,0,0,1,239,170)">
            <g transform="matrix(-1.88562,-1.88562,1.88562,-1.88562,400.817,1786.14)">
                <g id="Groupe_118">
                    <g id="Groupe_117">
                        <path id="Tracé_1376" d="M22.589,91.967C42.759,55.105 68.278,29.888 102.049,14.286C135.442,-1.143 197.366,22.433 179.232,20.399C128.742,14.739 89.273,37.906 57.388,74.944C53.853,79.049 47.676,82.783 47.046,91.664C53.966,87.055 59.752,83.073 65.674,79.298C71.297,75.719 76.132,77.976 79.91,82.305C83.921,86.905 81.563,91.032 77.574,94.305C60.202,108.557 43.164,123.268 25.157,136.676C17.454,142.417 7.317,140.059 7,129.7C6.37,109.083 -0.09,89.309 0,68.732C0.025,63.132 0.523,57.383 7.467,57.619C13.449,57.819 20.324,59.619 18.785,68.291C17.523,75.406 22.591,80.947 22.585,91.965" style="fill:rgb(0,88,120);fill-rule:nonzero;"/>
                    </g>
                </g>
            </g>
            <g transform="matrix(7.35181,0,0,7.35181,-5798.16,-932.921)">
                <path d="M869,291L869,290.797L867.276,290.797L865.768,307.855C865.697,308.457 866.071,309.022 866.653,309.191L877.037,311.893C877.433,312.009 877.857,311.85 878.08,311.503L885.436,299.28C885.515,299.156 885.538,299.004 885.499,298.863C885.46,298.721 885.363,298.603 885.232,298.537L869,291ZM870.626,291.873L884.248,299.184C884.248,299.184 876.922,309.901 876.922,309.901C876.922,309.901 868.38,307.142 868.38,307.142L870.626,291.873Z" style="fill:rgb(0,88,120);"/>
            </g>
            <g transform="matrix(-1.02985,3.84345,-3.84345,-1.02985,2770.89,-1661.59)">
                <path d="M869,291C868.209,291.212 867.498,291.403 867.205,291.481L867.014,290.766L865.58,307.833C865.499,308.526 865.93,309.177 866.6,309.372L876.997,312.029C877.453,312.162 877.943,311.979 878.199,311.579L885.502,299.322C885.593,299.18 885.62,299.005 885.575,298.842C885.53,298.679 885.418,298.542 885.267,298.467L869,291ZM870.868,292.013L884.133,299.208C884.133,299.208 876.87,309.733 876.87,309.733C876.87,309.733 868.594,307.019 868.594,307.019L870.868,292.013Z" style="fill:rgb(0,88,120);"/>
            </g>
            <g transform="matrix(0.617845,-2.30583,2.30583,0.617845,-494.356,3136.52)">
                <path d="M885.589,298.904L885.575,298.842C885.53,298.679 885.418,298.542 885.267,298.467L869,291L867.205,291.481L867.014,290.766L865.58,307.833C865.499,308.526 865.93,309.177 866.6,309.372L876.997,312.029C877.453,312.162 877.943,311.979 878.199,311.579L885.502,299.322C885.582,299.198 885.612,299.048 885.589,298.904ZM870.868,292.013L884.133,299.208C884.133,299.208 876.87,309.733 876.87,309.733C876.87,309.733 868.594,307.019 868.594,307.019L870.868,292.013Z" style="fill:rgb(0,88,120);"/>
            </g>
        </g>
    </g>
</svg>
