<?xml version="1.0" encoding="UTF-8" standalone="no"?>
<!DOCTYPE svg PUBLIC "-//W3C//DTD SVG 1.1//EN" "http://www.w3.org/Graphics/SVG/1.1/DTD/svg11.dtd">
<svg width="100%" height="100%" viewBox="0 0 163 75" version="1.1" xmlns="http://www.w3.org/2000/svg" xmlns:xlink="http://www.w3.org/1999/xlink" xml:space="preserve" xmlns:serif="http://www.serif.com/" style="fill-rule:evenodd;clip-rule:evenodd;stroke-linejoin:round;stroke-miterlimit:2;">
    <g transform="matrix(1,0,0,1,-1761.45,-1334.86)">
        <g transform="matrix(1,0,0,1,242.153,168.596)">
            <g transform="matrix(1.03844,0,0,1.03844,-679.494,-45.6707)">
                <g transform="matrix(0.516351,0,0,0.516351,1777.65,976.906)">
                    <path d="M745.273,368.29C734.741,368.29 719.716,372.292 700.197,380.366C674.149,392.232 660.106,403.817 658,414.98L658,416.665C658,419.825 659.545,423.335 662.704,427.127C665.864,430.918 680.327,438.08 706.025,448.682C724.982,454.088 735.443,459.564 737.339,465.041C739.305,470.447 735.864,475.362 727.088,479.785C699.635,486.596 685.523,491.44 684.61,494.389L684.61,498.742C685.663,501.621 688.331,503.095 692.614,503.095L697.669,502.183C738.181,491.581 758.402,480.698 758.402,469.394L756.226,460.758C756.226,455.843 748.222,449.524 732.213,441.731C679.625,427.478 665.232,413.997 689.174,401.289C713.116,388.581 731.371,382.472 743.868,382.964C752.575,384.579 756.928,383.385 756.928,379.524C756.928,374.609 753.066,370.888 745.273,368.29Z" style="fill:rgb(0,88,120);fill-rule:nonzero;"/>
                    <g transform="matrix(1,0,0,1,23,0)">
                        <path d="M847.219,413.927C842.726,413.927 840.479,417.227 840.479,423.757L840.479,424.74C840.479,439.554 839.075,459.284 836.267,483.928C836.267,489.685 839.637,493.617 846.377,495.723L853.117,494.67C865.334,490.808 876.287,483.928 885.906,474.028L885.906,472.062L882.536,468.13L877.481,468.13L849.747,479.926C852.556,461.881 853.96,442.503 853.96,421.791C853.96,416.525 851.713,413.927 847.219,413.927Z" style="fill:rgb(0,88,120);fill-rule:nonzero;"/>
                    </g>
                    <g transform="matrix(1,0,0,1,23,0)">
                        <path d="M902.686,415.191C891.733,417.016 884.361,420.878 880.5,426.776L880.5,427.969C880.5,436.746 882.185,441.661 885.555,442.854L888.644,442.854C892.014,436.746 896.508,433.446 902.125,432.954L901.774,441.731L894.682,484.138C895.595,492.564 897.912,496.776 901.774,496.776C909.988,496.776 915.114,479.153 917.01,443.978L917.01,435.973L917.501,430.216C930.701,430.216 937.301,427.548 937.301,422.212C937.301,417.648 930.701,415.331 917.571,415.331L902.686,415.191Z" style="fill:rgb(0,88,120);fill-rule:nonzero;"/>
                    </g>
                </g>
                <g transform="matrix(-2.10667,1.21629,-1.21629,-2.10667,4401.05,788.017)">
                    <path d="M870.642,291.762L870.724,291.203L867.276,290.797L865.768,307.855C865.697,308.457 866.071,309.022 866.653,309.191L877.037,311.893C877.433,312.009 877.857,311.85 878.08,311.503L885.436,299.28C885.515,299.156 885.538,299.004 885.499,298.863C885.46,298.721 885.363,298.603 885.232,298.537L870.642,291.762ZM870.626,291.873L868.38,307.142C868.38,307.142 876.922,309.901 876.922,309.901C876.922,309.901 884.248,299.184 884.248,299.184L870.626,291.873Z" style="fill:rgb(0,88,120);"/>
                </g>
            </g>
        </g>
    </g>
</svg>
