<?xml version="1.0" encoding="UTF-8" standalone="no"?>
<!DOCTYPE svg PUBLIC "-//W3C//DTD SVG 1.1//EN" "http://www.w3.org/Graphics/SVG/1.1/DTD/svg11.dtd">
<svg width="100%" height="100%" viewBox="0 0 165 165" version="1.1" xmlns="http://www.w3.org/2000/svg" xmlns:xlink="http://www.w3.org/1999/xlink" xml:space="preserve" xmlns:serif="http://www.serif.com/" style="fill-rule:evenodd;clip-rule:evenodd;stroke-linejoin:round;stroke-miterlimit:2;">
    <g transform="matrix(1,0,0,1,-1553.45,-1288.5)">
        <g transform="matrix(1,0,0,1,242.153,168.596)">
            <g transform="matrix(0.46875,0,0,0.46875,508.332,692.449)">
                <g transform="matrix(0.846154,0,0,0.846154,1235.77,689.366)">
                    <circle cx="772" cy="471" r="208" style="fill:rgb(0,88,120);"/>
                </g>
                <g transform="matrix(1,0,0,1,8.84485,0)">
                    <g transform="matrix(2.84943,0,0,2.84943,-547.109,185.558)">
                        <path d="M869,291L869,290.797L867.276,290.797L865.768,307.855C865.697,308.457 866.071,309.022 866.653,309.191L877.037,311.893C877.433,312.009 877.857,311.85 878.08,311.503L885.436,299.28C885.515,299.156 885.538,299.004 885.499,298.863C885.46,298.721 885.363,298.603 885.232,298.537L869,291ZM870.626,291.873L884.248,299.184C884.248,299.184 876.922,309.901 876.922,309.901C876.922,309.901 868.38,307.142 868.38,307.142L870.626,291.873Z" style="fill:white;"/>
                    </g>
                    <g transform="matrix(-0.399151,1.48965,-1.48965,-0.399151,2774.1,-96.8595)">
                        <path d="M869,291C868.209,291.212 867.498,291.403 867.205,291.481L867.014,290.766L865.58,307.833C865.499,308.526 865.93,309.177 866.6,309.372L876.997,312.029C877.453,312.162 877.943,311.979 878.199,311.579L885.502,299.322C885.593,299.18 885.62,299.005 885.575,298.842C885.53,298.679 885.418,298.542 885.267,298.467L869,291ZM870.868,292.013L884.133,299.208C884.133,299.208 876.87,309.733 876.87,309.733C876.87,309.733 868.594,307.019 868.594,307.019L870.868,292.013Z" style="fill:white;"/>
                    </g>
                    <g transform="matrix(0.239465,-0.893697,0.893697,0.239465,1508.55,1762.8)">
                        <path d="M885.589,298.904L885.575,298.842C885.53,298.679 885.418,298.542 885.267,298.467L869,291L867.205,291.481L867.014,290.766L865.58,307.833C865.499,308.526 865.93,309.177 866.6,309.372L876.997,312.029C877.453,312.162 877.943,311.979 878.199,311.579L885.502,299.322C885.582,299.198 885.612,299.048 885.589,298.904ZM870.868,292.013L884.133,299.208C884.133,299.208 876.87,309.733 876.87,309.733C876.87,309.733 868.594,307.019 868.594,307.019L870.868,292.013Z" style="fill:white;"/>
                    </g>
                    <g transform="matrix(1.89759,0,0,1.89759,515.126,261.139)">
                        <path d="M745.273,368.29C734.741,368.29 719.716,372.292 700.197,380.366C674.149,392.232 660.106,403.817 658,414.98L658,416.665C658,419.825 659.545,423.335 662.704,427.127C665.864,430.918 680.327,438.08 706.025,448.682C724.982,454.088 735.443,459.564 737.339,465.041C739.305,470.447 735.864,475.362 727.088,479.785C699.635,486.596 685.523,491.44 684.61,494.389L684.61,498.742C685.663,501.621 688.331,503.095 692.614,503.095L697.669,502.183C738.181,491.581 758.402,480.698 758.402,469.394L756.226,460.758C756.226,455.843 748.222,449.524 732.213,441.731C679.625,427.478 665.232,413.997 689.174,401.289C713.116,388.581 731.371,382.472 743.868,382.964C752.575,384.579 756.928,383.385 756.928,379.524C756.928,374.609 753.066,370.888 745.273,368.29Z" style="fill:white;fill-rule:nonzero;"/>
                    </g>
                </g>
            </g>
        </g>
    </g>
</svg>
